<svg width="215" height="95" viewBox="0 0 215 95" fill="none" xmlns="http://www.w3.org/2000/svg">
<path d="M4.9707 87.9656L6.35869 87.6911C6.55497 88.3558 6.97558 88.6882 7.63452 88.6882C7.94296 88.6882 8.19532 88.6304 8.39161 88.5003C8.58789 88.3847 8.68603 88.1969 8.68603 87.9367C8.68603 87.7778 8.62995 87.6333 8.51779 87.5177C8.40563 87.3876 8.19532 87.272 7.87286 87.1708L7.11578 86.8963C5.91005 86.4772 5.32121 85.7546 5.32121 84.743C5.32121 84.1072 5.54553 83.587 5.98015 83.2112C6.42879 82.821 6.9896 82.6332 7.6906 82.6332C8.82623 82.6332 9.61135 83.1679 10.046 84.2228L8.78417 84.8731C8.57387 84.324 8.20934 84.0494 7.70462 84.0494C7.1298 84.0494 6.8494 84.2806 6.8494 84.7286C6.8494 85.061 7.10176 85.3211 7.60648 85.5089L8.34955 85.7835C8.84025 85.9425 9.23281 86.1448 9.52723 86.4194C9.82165 86.6939 10.0039 86.9541 10.088 87.1853C10.1722 87.4165 10.2142 87.6766 10.2142 87.9223C10.2142 88.6304 9.96186 89.1795 9.47115 89.5553C8.96643 89.931 8.37759 90.1189 7.70462 90.1189C7.00362 90.1189 6.40075 89.931 5.86799 89.5408C5.32121 89.1362 5.02678 88.6159 4.9707 87.9656Z" fill="#FCFCFC"/>
<path d="M16.4815 89.0064C15.7665 88.2694 15.416 87.4023 15.416 86.3619C15.416 85.3358 15.7665 84.4543 16.4815 83.7173C17.1966 82.9803 18.0518 82.619 19.0612 82.619C20.0707 82.619 20.9259 82.9803 21.6409 83.7173C22.356 84.4543 22.7065 85.3214 22.7065 86.3619C22.7065 87.3879 22.356 88.2694 21.6409 89.0064C20.9259 89.7434 20.0707 90.1047 19.0612 90.1047C18.0518 90.1047 17.1966 89.7434 16.4815 89.0064ZM17.5611 84.7433C17.1545 85.1769 16.9442 85.7116 16.9442 86.3619C16.9442 87.0122 17.1545 87.5613 17.5611 87.9804C17.9677 88.4139 18.4724 88.6162 19.0612 88.6162C19.6501 88.6162 20.1548 88.3995 20.5614 87.9804C20.968 87.5469 21.1783 87.0122 21.1783 86.3619C21.1783 85.7116 20.968 85.1624 20.5614 84.7433C20.1548 84.3098 19.6501 84.1075 19.0612 84.1075C18.4724 84.093 17.9677 84.3098 17.5611 84.7433Z" fill="#FCFCFC"/>
<path d="M29.9117 88.7175H33.0943V89.9892H28.3555V82.7491H29.9117V88.7175Z" fill="#FCFCFC"/>
<path d="M39.4464 89.9892L36.9648 82.7491H38.6052L40.1614 87.8937L41.7177 82.7491H43.358L40.8624 89.9892H39.4464Z" fill="#FCFCFC"/>
<path d="M50.3668 82.7491V89.9892H48.8105V82.7491H50.3668Z" fill="#FCFCFC"/>
<path d="M61.1078 89.9892L58.0094 85.5816V89.9748H56.4531V82.7347H57.6448L60.7433 87.099V82.7347H62.2995V89.9748H61.1078V89.9892Z" fill="#FCFCFC"/>
<path d="M67.9355 86.3619C67.9355 85.3069 68.2861 84.4254 68.973 83.7029C69.66 82.9803 70.5853 82.619 71.735 82.619C72.2397 82.619 72.6884 82.6913 73.0809 82.8502C73.4735 83.0092 73.866 83.2404 74.2586 83.5439L73.4875 84.7289C72.9547 84.2954 72.3799 84.0786 71.7771 84.0786C71.3705 84.0786 71.0059 84.1508 70.6975 84.2809C70.3891 84.4254 70.1507 84.5988 69.9825 84.83C69.8142 85.0613 69.6881 85.3069 69.6039 85.5526C69.5198 85.8127 69.4778 86.0728 69.4778 86.3474C69.4778 86.9977 69.674 87.5468 70.0806 87.9659C70.4872 88.385 71.0059 88.6018 71.6369 88.6018C72.1556 88.6018 72.5902 88.5151 72.9267 88.3272V87.2867H71.1462V86.0439H74.3848V88.992C73.5856 89.729 72.6743 90.1047 71.6369 90.1047C70.5713 90.1047 69.6881 89.7434 68.973 89.0064C68.3001 88.2839 67.9355 87.4023 67.9355 86.3619Z" fill="#FCFCFC"/>
<path d="M86.1742 82.7491H91.6841V84.0931H89.6792V89.9892H88.137V84.0931H86.1602V82.7491H86.1742Z" fill="#FCFCFC"/>
<path d="M102.958 89.9892H101.402V87.1567H98.7379V89.9892H97.1816V82.7491H98.7379V85.8995H101.402V82.7491H102.958V89.9892Z" fill="#FCFCFC"/>
<path d="M113.71 89.9892H109.041V82.7491H113.71V84.0208H110.597V85.7983H113.303V87.07H110.597V88.7175H113.71V89.9892Z" fill="#FCFCFC"/>
<path d="M130.492 82.7491H132.048V87.2579C132.048 88.1539 131.768 88.862 131.221 89.3533C130.66 89.8591 129.973 90.1048 129.146 90.1048C128.319 90.1048 127.618 89.8591 127.071 89.3533C126.525 88.8475 126.244 88.1539 126.244 87.2579V82.7491H127.8V87.2579C127.8 87.7348 127.927 88.1105 128.193 88.3706C128.445 88.6307 128.768 88.7608 129.146 88.7608C129.525 88.7608 129.847 88.6307 130.114 88.3562C130.38 88.0961 130.506 87.7203 130.506 87.2434V82.7491H130.492Z" fill="#FCFCFC"/>
<path d="M142.69 89.9892L139.591 85.5816V89.9748H138.035V82.7347H139.227L142.325 87.099V82.7347H143.882V89.9748H142.69V89.9892Z" fill="#FCFCFC"/>
<path d="M149.42 87.9659L150.808 87.6913C151.004 88.3561 151.425 88.6884 152.084 88.6884C152.392 88.6884 152.645 88.6306 152.841 88.5006C153.037 88.385 153.135 88.1971 153.135 87.937C153.135 87.778 153.079 87.6335 152.967 87.5179C152.855 87.3878 152.645 87.2722 152.322 87.1711L151.565 86.8965C150.373 86.4774 149.784 85.7549 149.784 84.7433C149.784 84.1074 150.009 83.5872 150.443 83.2115C150.892 82.8213 151.453 82.6334 152.154 82.6334C153.289 82.6334 154.075 83.1681 154.509 84.223L153.247 84.8733C153.037 84.3242 152.673 84.0496 152.168 84.0496C151.593 84.0496 151.313 84.2808 151.313 84.7288C151.313 85.0612 151.565 85.3213 152.07 85.5092L152.813 85.7838C153.303 85.9427 153.696 86.145 153.99 86.4196C154.285 86.6942 154.467 86.9543 154.551 87.1855C154.635 87.4167 154.677 87.6769 154.677 87.9225C154.677 88.6306 154.425 89.1798 153.934 89.5555C153.43 89.9312 152.841 90.1191 152.168 90.1191C151.467 90.1191 150.864 89.9312 150.331 89.5411C149.77 89.1364 149.476 88.6162 149.42 87.9659Z" fill="#FCFCFC"/>
<path d="M160.931 89.0064C160.216 88.2694 159.865 87.4023 159.865 86.3619C159.865 85.3358 160.216 84.4543 160.931 83.7173C161.646 82.9803 162.501 82.619 163.51 82.619C164.52 82.619 165.375 82.9803 166.09 83.7173C166.805 84.4543 167.156 85.3214 167.156 86.3619C167.156 87.3879 166.805 88.2694 166.09 89.0064C165.375 89.7434 164.52 90.1047 163.51 90.1047C162.501 90.1047 161.646 89.7434 160.931 89.0064ZM162.01 84.7433C161.604 85.1769 161.393 85.7116 161.393 86.3619C161.393 87.0122 161.604 87.5613 162.01 87.9804C162.417 88.4139 162.922 88.6162 163.51 88.6162C164.099 88.6162 164.604 88.3995 165.011 87.9804C165.417 87.5469 165.627 87.0122 165.627 86.3619C165.627 85.7116 165.417 85.1624 165.011 84.7433C164.604 84.3098 164.099 84.1075 163.51 84.1075C162.922 84.1075 162.431 84.3098 162.01 84.7433Z" fill="#FCFCFC"/>
<path d="M174.361 88.7175H177.543V89.9892H172.805V82.7491H174.361V88.7175Z" fill="#FCFCFC"/>
<path d="M183.896 89.9892L181.414 82.7491H183.054L184.611 87.8937L186.167 82.7491H187.807L185.312 89.9892H183.896Z" fill="#FCFCFC"/>
<path d="M197.944 89.9892H193.275V82.7491H197.944V84.0208H194.832V85.7983H197.537V87.07H194.832V88.7175H197.944V89.9892Z" fill="#FCFCFC"/>
<path d="M209.006 83.7895C209.693 84.4832 210.029 85.3502 210.029 86.3763C210.029 87.4023 209.693 88.2694 209.006 88.963C208.319 89.6567 207.421 90.0035 206.3 90.0035H203.664V82.7635H206.3C207.421 82.749 208.319 83.0959 209.006 83.7895ZM207.87 88.0382C208.263 87.5902 208.473 87.0266 208.473 86.3618C208.473 85.6971 208.277 85.1479 207.87 84.6855C207.478 84.2375 206.945 84.0063 206.3 84.0063H205.22V88.7029H206.3C206.945 88.7174 207.464 88.4861 207.87 88.0382Z" fill="#FCFCFC"/>
<path d="M26.4126 75.9801V76.9374H8.33414C6.47024 76.9374 4.9707 75.4311 4.9707 73.5587V73.4179L18.2563 56.6368H5.97974V55.1163C5.97974 53.5678 7.24103 52.3007 8.7826 52.3007H22.1663C24.0302 52.3007 25.5297 53.8071 25.5297 55.6795V55.8484L12.146 72.6014H23.0352C24.8991 72.6014 26.4126 74.1077 26.4126 75.9801Z" fill="white"/>
<path d="M44.7023 72.2215L46.3139 73.756C44.1838 76.1211 41.3949 77.3037 37.9334 77.3037C34.7101 77.3037 32.1875 76.4168 30.3656 74.6429C28.5437 72.8691 27.6328 70.6447 27.6328 67.9699C27.6328 65.295 28.5718 63.0425 30.4357 61.2124C32.2996 59.3822 34.668 58.4672 37.555 58.4672C40.2457 58.4672 42.5301 59.3963 44.436 61.2546C46.342 63.1129 47.2949 65.7315 47.2949 69.1102H32.8181C32.8602 70.2646 33.3787 71.1938 34.3597 71.9258C35.3407 72.6579 36.658 73.0239 38.3117 73.0239C39.6011 73.0239 40.8063 72.672 41.9134 71.9681C42.8103 71.405 43.9455 71.5035 44.7023 72.2215ZM37.4849 62.7469C36.5039 62.7469 35.5789 63.0003 34.696 63.5212C33.8272 64.0421 33.2245 64.8445 32.9302 65.9426H41.9274C41.7593 64.8868 41.2407 64.0843 40.3578 63.5494C39.4609 63.0144 38.5079 62.7469 37.4849 62.7469Z" fill="white"/>
<path d="M62.9904 58.8755H65.4009C66.9424 58.8755 68.2037 60.1426 68.2037 61.6912V76.9237H64.3918C63.621 76.9237 62.9904 76.2902 62.9904 75.5159V74.277C61.589 76.2902 59.711 77.3038 57.3566 77.3038C54.6939 77.3038 52.5637 76.4028 50.9801 74.6008C49.3965 72.7988 48.5977 70.5322 48.5977 67.8151C48.5977 65.1684 49.3684 62.9441 50.896 61.1703C52.4236 59.3823 54.5397 58.4954 57.2585 58.4954C58.4217 58.4954 59.5148 58.7488 60.5379 59.2697C61.5469 59.7906 62.3738 60.4804 63.0044 61.3533V58.8755H62.9904ZM53.811 67.8433C53.811 69.3496 54.2314 70.5885 55.0583 71.574C55.8851 72.5595 57.0203 73.0522 58.4357 73.0522C59.7951 73.0522 60.9163 72.6158 61.7992 71.757C62.6821 70.8842 63.1305 69.6734 63.1305 68.1249C63.1305 66.4636 62.6821 65.1403 61.7992 64.183C60.9163 63.2257 59.7391 62.747 58.2956 62.747C56.9222 62.747 55.8291 63.2397 55.0162 64.2111C54.2034 65.1825 53.811 66.3932 53.811 67.8433Z" fill="white"/>
<path d="M77.2836 76.9233H72.0703V51.4842H73.9202C75.7841 51.4842 77.2836 52.9905 77.2836 54.8629V76.9233Z" fill="white"/>
<path d="M82.9329 74.6567C80.9849 72.8829 80.0039 70.6304 80.0039 67.8851C80.0039 65.1399 80.9849 62.8874 82.9329 61.1276C84.8809 59.3679 87.2073 58.481 89.884 58.481C92.5748 58.481 94.8871 59.3679 96.8351 61.1417C98.7831 62.9156 99.7641 65.154 99.7641 67.8851C99.7641 70.6304 98.7831 72.8829 96.8351 74.6567C94.8871 76.4305 92.5608 77.3175 89.884 77.3175C87.2073 77.3175 84.8809 76.4305 82.9329 74.6567ZM85.0911 67.8851C85.0911 69.2929 85.5676 70.4614 86.5066 71.4047C87.4595 72.3479 88.5807 72.8125 89.884 72.8125C91.2154 72.8125 92.3505 72.3338 93.2755 71.3906C94.2144 70.4333 94.6769 69.2789 94.6769 67.8851C94.6769 66.5055 94.2144 65.337 93.2755 64.3938C92.3365 63.4505 91.2014 62.986 89.884 62.986C88.5807 62.986 87.4455 63.4505 86.5066 64.3938C85.5676 65.337 85.0911 66.4914 85.0911 67.8851Z" fill="white"/>
<path d="M119.426 61.6911V76.9236H115.614C114.843 76.9236 114.213 76.2901 114.213 75.5158V74.4599C112.853 76.3605 111.003 77.3037 108.635 77.3037C104.361 77.3037 102.23 74.4318 102.23 68.6879V58.8614H104.641C106.183 58.8614 107.444 60.1284 107.444 61.677V68.5753C107.444 71.5035 108.551 72.9676 110.765 72.9676C111.914 72.9676 112.769 72.5594 113.344 71.7569C113.918 70.9404 114.199 69.8705 114.199 68.533V58.8473H116.609C118.165 58.8754 119.426 60.1284 119.426 61.6911Z" fill="white"/>
<path d="M121.85 72.6998L123.671 71.6581C124.568 71.1513 125.718 71.3061 126.404 72.0804C126.6 72.2916 126.811 72.4746 127.063 72.6295C127.764 73.0518 128.548 73.263 129.417 73.263C130.048 73.263 130.595 73.1503 131.071 72.911C131.534 72.6717 131.772 72.3338 131.772 71.8974C131.772 71.3343 131.323 70.8838 130.44 70.5177L127.287 69.1803C126.306 68.8284 125.479 68.406 124.821 67.8992C124.148 67.3924 123.699 66.8715 123.433 66.3225C123.181 65.7734 123.013 65.3229 122.929 64.985C122.845 64.6472 122.803 64.3234 122.803 64.0137C122.803 62.282 123.475 60.9165 124.821 59.9451C126.166 58.9737 127.834 58.481 129.852 58.481C132.865 58.481 135.023 59.748 136.326 62.282L133.986 63.3661C133.201 63.7321 132.248 63.6335 131.604 63.0423C131.141 62.634 130.524 62.4228 129.74 62.4228C129.207 62.4228 128.731 62.5636 128.338 62.8311C127.946 63.0986 127.75 63.4646 127.75 63.901C127.75 64.2811 127.89 64.5768 128.156 64.7739C128.422 64.985 128.857 65.2103 129.431 65.4496L132.122 66.5055C133.103 66.787 133.93 67.1672 134.617 67.6317C135.289 68.0963 135.766 68.6031 136.046 69.1522C136.326 69.6871 136.509 70.1517 136.607 70.5459C136.705 70.9401 136.747 71.3202 136.747 71.7285C136.747 73.4882 136.046 74.8538 134.645 75.8393C133.243 76.8247 131.491 77.3175 129.389 77.3175C127.736 77.3175 126.194 76.9655 124.793 76.2757C123.391 75.5859 122.41 74.3892 121.85 72.6998Z" fill="white"/>
<path d="M185.476 72.2215L187.087 73.756C184.957 76.1211 182.168 77.3037 178.707 77.3037C175.483 77.3037 172.961 76.4168 171.139 74.6429C169.317 72.8691 168.406 70.6447 168.406 67.9699C168.406 65.295 169.345 63.0425 171.209 61.2124C173.073 59.3822 175.441 58.4672 178.328 58.4672C181.019 58.4672 183.303 59.3963 185.209 61.2546C187.115 63.1129 188.068 65.7315 188.068 69.1102H173.606C173.648 70.2646 174.166 71.1938 175.147 71.9258C176.128 72.6579 177.445 73.0239 179.099 73.0239C180.388 73.0239 181.594 72.672 182.701 71.9681C183.584 71.405 184.719 71.5035 185.476 72.2215ZM178.258 62.7469C177.277 62.7469 176.352 63.0003 175.469 63.5212C174.601 64.0421 173.998 64.8445 173.704 65.9426H182.701C182.533 64.8868 182.014 64.0843 181.131 63.5494C180.234 63.0144 179.281 62.7469 178.258 62.7469Z" fill="white"/>
<path d="M210.028 67.8148C210.028 70.5319 209.229 72.7985 207.646 74.6004C206.062 76.4024 203.932 77.3034 201.269 77.3034C198.915 77.3034 197.037 76.2898 195.635 74.2767V76.9233H190.422V51.4842H192.832C194.374 51.4842 195.635 52.7512 195.635 54.2998V61.3389C196.266 60.466 197.093 59.7762 198.102 59.2553C199.111 58.7344 200.204 58.481 201.381 58.481C204.086 58.481 206.216 59.3679 207.744 61.1559C209.257 62.9438 210.028 65.154 210.028 67.8148ZM204.815 67.843C204.815 66.3929 204.408 65.1681 203.609 64.1967C202.797 63.2253 201.717 62.7326 200.33 62.7326C198.887 62.7326 197.709 63.2113 196.826 64.1686C195.944 65.1259 195.495 66.4492 195.495 68.1104C195.495 69.659 195.944 70.8698 196.826 71.7426C197.709 72.6154 198.83 73.0378 200.19 73.0378C201.619 73.0378 202.74 72.545 203.567 71.5596C204.394 70.5882 204.815 69.3493 204.815 67.843Z" fill="white"/>
<path fill-rule="evenodd" clip-rule="evenodd" d="M146.726 67.3219L144.105 57.6925C143.152 54.4827 140.209 52.2865 136.916 52.2865H134.057C134.057 54.2434 135.318 55.9327 137.056 56.524C137.911 56.8337 138.569 57.5517 138.836 58.4386L143.825 74.8396L143.839 74.8115V74.9241C144.203 76.1067 145.296 76.9232 146.529 76.9232C147.763 76.9232 148.856 76.1207 149.22 74.9382L153.172 62.0989L156.914 74.8115C157.278 76.0644 158.428 76.9232 159.731 76.9232C161.02 76.9232 162.155 76.0785 162.534 74.8396L169.387 52.2865H166.444C164.986 52.2865 163.697 53.2438 163.263 54.6516L159.409 67.3219L155.597 54.9332C155.26 53.8632 154.279 53.1312 153.158 53.1312C152.051 53.1312 151.07 53.8492 150.734 54.905L146.726 67.3219Z" fill="url(#paint0_linear_2456_7945)"/>
<path d="M115.035 44.9707C115.035 44.9707 118.604 42.619 123.485 43.4166C127.669 44.1043 132.182 48.0651 138.143 49.2616C138.444 49.3442 138.759 49.4129 139.073 49.4542C143.517 50.1968 148.891 48.3127 148.59 45.1633C147.769 36.2789 125.03 35.1099 115.035 44.9707Z" fill="url(#paint1_linear_2456_7945)"/>
<path d="M116.841 36.2103C111.057 34.2161 108.418 31.8781 105.246 29.1413C102.074 26.4044 100.98 24.424 99.1474 22.1685C97.3289 19.913 95.2642 15.5946 92.0919 12.3902C88.9197 9.18574 83.0811 8.78691 78.856 11.0699C74.6309 13.3529 74.0977 18.0014 74.0977 18.0014C79.7448 17.135 82.0556 21.5497 83.7374 24.9879C85.4193 28.4261 85.6517 32.1669 85.9936 34.615C87.1558 42.9217 92.4885 47.7628 98.6552 49.2343C100.761 49.812 106.504 51.4073 108.049 51.9987C108.049 51.9987 104.74 50.2933 103.878 49.6882C103.878 49.6882 103.865 49.6882 103.851 49.6882C104.425 49.6607 105.547 49.5369 106.121 49.4544C108.404 49.922 108.514 50.1558 109.895 50.6922C109.895 50.6922 107.68 49.0693 107.639 49.0693C110.332 48.3267 112.889 46.9651 115.036 44.9847C115.145 44.8747 115.241 44.7784 115.364 44.6684C117.415 42.7705 119.384 41.7252 120.15 41.3402C121.476 40.6663 125.537 38.6721 131.759 38.1495C124.512 37.8331 119.056 36.9667 116.841 36.2103ZM80.907 15.1408C80.4558 15.1408 80.0866 14.7557 80.0866 14.3018C80.1003 13.8342 80.4695 13.4629 80.9344 13.4767C81.3719 13.4767 81.7411 13.8617 81.7411 14.3156C81.7411 14.7832 81.3719 15.1545 80.907 15.1408Z" fill="url(#paint2_linear_2456_7945)"/>
<path d="M130.268 51.9987H126.262V52.7414C126.262 54.1442 127.397 55.2719 128.778 55.2719H132.784V54.5293C132.784 53.1402 131.663 51.9987 130.268 51.9987Z" fill="#0073A1"/>
<path d="M122.653 51.9987H118.646V52.7414C118.646 54.1442 119.781 55.2719 121.162 55.2719H125.169V54.5293C125.169 53.1402 124.034 51.9987 122.653 51.9987Z" fill="#ED3E75"/>
<path d="M115.022 51.9987H111.016V52.7414C111.016 54.1442 112.151 55.2719 113.532 55.2719H117.538V54.5293C117.552 53.1402 116.417 51.9987 115.022 51.9987Z" fill="#F69348"/>
<path d="M129.186 21.3846C126.93 21.2745 124.401 21.2058 121.707 21.247C122.787 18.7577 123.703 16.3785 124.469 14.2468C130.157 13.2153 134.109 12.9402 134.109 12.9402C134.109 12.9402 132.331 16.4885 129.186 21.3846Z" fill="url(#paint3_linear_2456_7945)"/>
<path d="M89.2617 43.0455C89.2481 43.0317 89.2344 43.018 89.2344 43.0042C89.6036 43.5544 90.0274 44.0495 90.465 44.4621C94.3482 48.1203 103.578 49.5644 113.313 36.2653C116.786 31.5205 119.562 26.1706 121.709 21.2471C124.403 21.2058 126.946 21.2608 129.188 21.3846C125.537 27.0646 120.041 34.5187 113.327 40.2674C100.884 50.9397 92.2425 47.474 89.2617 43.0455Z" fill="url(#paint4_linear_2456_7945)"/>
<path d="M112.464 44.1593C99.5832 50.8295 92.1175 47.3912 89.2734 43.0453C92.2543 47.4738 100.896 50.9257 113.339 40.2672C120.052 34.5185 125.549 27.0506 129.2 21.3844C134.984 21.687 138.894 22.3196 138.894 22.3196C138.894 22.3196 127.053 36.6089 112.464 44.1593Z" fill="url(#paint5_linear_2456_7945)"/>
<path d="M88.372 41.2988C88.5771 41.8627 88.8643 42.4403 89.2335 43.0042C89.2198 42.9904 89.2061 42.9767 89.2061 42.9629C86.2937 38.4932 86.4441 29.1275 101.034 21.6871C108.896 17.6713 117.866 15.4433 124.47 14.2468C123.704 16.3785 122.788 18.7577 121.708 21.247C116.362 21.3295 110.386 21.8522 104.698 23.255C88.7549 27.1608 86.5125 36.279 88.372 41.2988Z" fill="url(#paint6_linear_2456_7945)"/>
<path d="M89.2061 42.9492C86.321 38.6307 86.0338 30.379 97.123 20.9857C109.662 10.3684 127.341 4.88098 127.341 4.88098C127.341 4.88098 126.425 8.75932 124.47 14.233C117.852 15.4295 108.896 17.6575 101.034 21.6733C86.444 29.1274 86.2799 38.4795 89.2061 42.9492Z" fill="url(#paint7_linear_2456_7945)"/>
<path d="M90.4645 44.4619C90.027 44.0493 89.6031 43.5542 89.2339 43.0041C88.8647 42.4403 88.5913 41.8626 88.3725 41.2988C86.5129 36.2927 88.7554 27.1607 104.685 23.2549C110.373 21.8521 116.362 21.3432 121.695 21.2469C119.562 26.1705 116.772 31.5204 113.299 36.2652C103.577 49.5505 94.3478 48.1202 90.4645 44.4619Z" fill="url(#paint8_linear_2456_7945)"/>
<defs>
<linearGradient id="paint0_linear_2456_7945" x1="151.721" y1="50.0225" x2="151.721" y2="79.0717" gradientUnits="userSpaceOnUse">
<stop stop-color="#0074A2"/>
<stop offset="0.5521" stop-color="#F05B7D"/>
<stop offset="1" stop-color="#FABE46"/>
</linearGradient>
<linearGradient id="paint1_linear_2456_7945" x1="118.324" y1="38.262" x2="158.092" y2="52.6554" gradientUnits="userSpaceOnUse">
<stop stop-color="#63C2D0"/>
<stop offset="0.5" stop-color="#006D9F"/>
<stop offset="1" stop-color="#23536D"/>
</linearGradient>
<linearGradient id="paint2_linear_2456_7945" x1="81.0891" y1="30.8084" x2="138.743" y2="30.8084" gradientUnits="userSpaceOnUse">
<stop stop-color="#3EABB5"/>
<stop offset="0.2297" stop-color="#63C2D0"/>
<stop offset="0.5054" stop-color="#63C2D0"/>
<stop offset="0.8871" stop-color="#006D9F"/>
</linearGradient>
<linearGradient id="paint3_linear_2456_7945" x1="94.7413" y1="17.1578" x2="133.44" y2="17.1578" gradientUnits="userSpaceOnUse">
<stop stop-color="#C6135D"/>
<stop offset="0.4459" stop-color="#E95178"/>
<stop offset="1" stop-color="#C6135D"/>
</linearGradient>
<linearGradient id="paint4_linear_2456_7945" x1="89.234" y1="34.2759" x2="129.192" y2="34.2759" gradientUnits="userSpaceOnUse">
<stop stop-color="#006D9F"/>
<stop offset="1" stop-color="#3EABB5"/>
</linearGradient>
<linearGradient id="paint5_linear_2456_7945" x1="89.2626" y1="34.6438" x2="138.882" y2="34.6438" gradientUnits="userSpaceOnUse">
<stop stop-color="#23536D"/>
<stop offset="0.9919" stop-color="#3EABB5"/>
</linearGradient>
<linearGradient id="paint6_linear_2456_7945" x1="87.7133" y1="28.6221" x2="124.464" y2="28.6221" gradientUnits="userSpaceOnUse">
<stop stop-color="#E40046"/>
<stop offset="1" stop-color="#E95283"/>
</linearGradient>
<linearGradient id="paint7_linear_2456_7945" x1="87.4999" y1="23.9201" x2="127.336" y2="23.9201" gradientUnits="userSpaceOnUse">
<stop stop-color="#FABC43"/>
<stop offset="1" stop-color="#F2933F"/>
</linearGradient>
<linearGradient id="paint8_linear_2456_7945" x1="87.8218" y1="34.1125" x2="121.707" y2="34.1125" gradientUnits="userSpaceOnUse">
<stop stop-color="#006D9F"/>
<stop offset="1" stop-color="#63C2D0"/>
</linearGradient>
</defs>
</svg>
